<?xml version="1.0" encoding="UTF-8"?>
<svg version="1.1" xmlns="http://www.w3.org/2000/svg" width="512" height="512">
<path d="M0 0 C1.09739992 -0.00297112 2.19479983 -0.00594224 3.32545429 -0.0090034 C6.99221028 -0.01765509 10.65893348 -0.01919567 14.32569885 -0.02069092 C16.9593623 -0.02532166 19.59302283 -0.03032655 22.22668457 -0.03573608 C29.37588293 -0.04928131 36.52507565 -0.05533847 43.6742847 -0.05974674 C48.14563092 -0.06251624 52.616975 -0.06675491 57.08831978 -0.07125092 C69.48862668 -0.08343976 81.88893189 -0.09373908 94.28924465 -0.09712601 C95.08194217 -0.09734557 95.87463968 -0.09756514 96.69135833 -0.09779136 C97.48586668 -0.09800964 98.28037503 -0.09822791 99.09895939 -0.09845281 C100.7087189 -0.09889626 102.31847841 -0.09934282 103.92823792 -0.09979248 C104.72672061 -0.10001391 105.52520331 -0.10023534 106.34788246 -0.10046348 C119.26896829 -0.1044065 132.18999756 -0.12184709 145.11106157 -0.145152 C158.40373503 -0.16893188 171.69638019 -0.18133091 184.98907524 -0.18249393 C192.44152381 -0.18340709 199.8938987 -0.18906817 207.34632683 -0.20731354 C213.69575848 -0.22280458 220.04509368 -0.22778251 226.39454066 -0.21957543 C229.62708539 -0.21570015 232.85939827 -0.21811544 236.09192657 -0.23063278 C263.82854874 -0.33167425 288.29870877 3.13647003 309.90211487 22.14044189 C311.04486877 23.14010986 311.04486877 23.14010986 312.21070862 24.15997314 C327.76967948 38.69426309 337.28468976 60.67072354 338.03354263 81.85912132 C338.04154284 83.21576318 338.04425616 84.57244329 338.04255676 85.92910767 C338.04701345 87.05939831 338.04701345 87.05939831 338.05156016 88.2125231 C338.0601876 90.72154787 338.06175036 93.2305246 338.06324768 95.73956299 C338.06788027 97.54550273 338.07290552 99.3514415 338.07829285 101.15737915 C338.09138095 106.05464376 338.09785541 110.95189467 338.1023035 115.84917402 C338.10524153 118.91561152 338.10934781 121.98204535 338.11380768 125.04848099 C338.12747646 134.66200917 338.13714475 144.27552887 338.14100957 153.8890661 C338.14548149 164.94937891 338.16299172 176.0095676 338.19201016 187.0698427 C338.21371097 195.64173104 338.2237184 204.21358468 338.22505069 212.78550017 C338.22609321 217.89389746 338.23188159 223.00217799 338.2498703 228.11054611 C338.26649563 232.92542424 338.26843725 237.74009967 338.25973129 242.55499649 C338.25896844 244.30877988 338.26320248 246.06257483 338.27318954 247.81632996 C338.41911979 275.07132611 331.67749652 298.54716778 312.55445862 318.61309814 C299.48331197 331.0682261 282.89557948 339.7130188 264.90211487 342.14044189 C262.90388243 342.08011718 260.9069695 341.94670971 258.91717529 341.75360107 C257.73877831 341.64612706 256.56038132 341.53865305 255.34627533 341.42792225 C254.06428001 341.30662795 252.7822847 341.18533365 251.46144104 341.06036377 C232.03093162 339.3475632 212.58361883 338.29133751 193.08961487 337.64044189 C192.21858753 337.61072406 191.3475602 337.58100623 190.45013809 337.55038786 C147.91207593 336.15454238 110.64617874 336.20796782 78.17340088 366.45083618 C64.23692033 380.04620447 51.53569624 395.42406691 40.36459351 411.36427307 C39.4884362 412.60773624 39.4884362 412.60773624 38.59457874 413.87631989 C37.52915895 415.40756627 36.48282036 416.95237628 35.46158123 418.51343536 C31.84911057 423.75590622 28.03890447 426.35454875 21.90211487 428.14044189 C15.92003217 428.94015768 10.0883946 428.40474738 4.90211487 425.14044189 C0.19063606 420.73266468 -3.95401351 416.79685484 -4.21813965 410.08424377 C-4.21591904 408.82959824 -4.21369843 407.5749527 -4.21141052 406.2822876 C-4.21155655 405.58934601 -4.21170258 404.89640442 -4.21185303 404.1824646 C-4.21115676 401.89368553 -4.20337773 399.60498799 -4.19554138 397.31622314 C-4.19367619 395.72867375 -4.19225276 394.14112378 -4.19125366 392.55357361 C-4.18743648 388.3762147 -4.17761299 384.19889058 -4.16654968 380.02154541 C-4.15631841 375.75844798 -4.15175236 371.49534493 -4.14671326 367.23223877 C-4.13599002 358.86829051 -4.11892316 350.50437053 -4.09788513 342.14044189 C-4.98547516 342.14855392 -5.87306519 342.15666595 -6.78755188 342.1650238 C-7.95456635 342.17133316 -9.12158081 342.17764252 -10.32395935 342.18414307 C-12.05753189 342.19631111 -12.05753189 342.19631111 -13.8261261 342.20872498 C-24.37584224 341.98854766 -34.86205779 338.01871272 -44.09788513 333.14044189 C-45.04921326 332.66091064 -46.00054138 332.18137939 -46.98069763 331.68731689 C-67.15953581 320.83394701 -80.42644675 302.3476426 -87.15647888 280.74200439 C-89.29553256 272.61564736 -90.24887431 264.61775118 -90.23832703 256.22479248 C-90.24129815 255.4697054 -90.24426927 254.71461831 -90.24733043 253.9366498 C-90.25594159 251.42839709 -90.25751921 248.92019254 -90.25901794 246.41192627 C-90.2636516 244.60421651 -90.26867699 242.79650772 -90.27406311 240.98880005 C-90.28713872 236.0916618 -90.2936229 231.19453723 -90.29807377 226.29738426 C-90.30101308 223.23111668 -90.30511954 220.16485276 -90.30957794 217.09858704 C-90.3232418 207.48559828 -90.33291319 197.87261798 -90.33677983 188.25962019 C-90.34125422 177.19930744 -90.35877806 166.13911867 -90.38778043 155.07884359 C-90.40947186 146.50610147 -90.41948812 137.93339403 -90.42082095 129.36062479 C-90.42186389 124.25171537 -90.42766177 119.14292265 -90.44564056 114.03404236 C-90.4622502 109.22079559 -90.46421492 104.40775164 -90.45550156 99.59448624 C-90.45473796 97.84028196 -90.45898304 96.08606618 -90.46895981 94.33189011 C-90.6015831 69.53361807 -84.82601724 47.15671037 -68.09788513 28.14044189 C-67.43143982 27.37860596 -66.76499451 26.61677002 -66.07835388 25.83184814 C-48.95036144 7.49631635 -24.52596679 -0.02092371 0 0 Z " fill="#2675E2" transform="translate(132.09788513183594,41.85955810546875)"/>
<path d="M0 0 C7.2879237 6.04765957 12.37023043 13.16630334 13.71875 22.6796875 C14.06469172 32.63632249 11.93294746 40.12165069 5.71875 47.90234375 C-1.14911179 55.01007571 -8.84264538 58.70432601 -18.78125 58.90234375 C-28.69396533 58.70484183 -36.38824927 55.00989597 -43.28125 47.96484375 C-49.37001652 40.36657052 -51.62680024 32.11080065 -51.29296875 22.4296875 C-49.91800245 13.62360563 -44.96987005 5.43809378 -37.78125 0.15234375 C-25.36959151 -7.29854215 -12.44538886 -8.26779344 0 0 Z " fill="#EBE9E9" transform="translate(370.78125,186.84765625)"/>
<path d="M0 0 C7.2879237 6.04765957 12.37023043 13.16630334 13.71875 22.6796875 C14.06469172 32.63632249 11.93294746 40.12165069 5.71875 47.90234375 C-1.14911179 55.01007571 -8.84264538 58.70432601 -18.78125 58.90234375 C-28.69396533 58.70484183 -36.38824927 55.00989597 -43.28125 47.96484375 C-49.37001652 40.36657052 -51.62680024 32.11080065 -51.29296875 22.4296875 C-49.91800245 13.62360563 -44.96987005 5.43809378 -37.78125 0.15234375 C-25.36959151 -7.29854215 -12.44538886 -8.26779344 0 0 Z " fill="#EBE9E9" transform="translate(274.78125,186.84765625)"/>
<path d="M0 0 C7.2879237 6.04765957 12.37023043 13.16630334 13.71875 22.6796875 C14.06469172 32.63632249 11.93294746 40.12165069 5.71875 47.90234375 C-1.14911179 55.01007571 -8.84264538 58.70432601 -18.78125 58.90234375 C-28.69396533 58.70484183 -36.38824927 55.00989597 -43.28125 47.96484375 C-49.37001652 40.36657052 -51.62680024 32.11080065 -51.29296875 22.4296875 C-49.91800245 13.62360563 -44.96987005 5.43809378 -37.78125 0.15234375 C-25.36959151 -7.29854215 -12.44538886 -8.26779344 0 0 Z " fill="#EBE9E9" transform="translate(178.78125,186.84765625)"/>
</svg>
